<?xml version="1.0" encoding="UTF-8"?><svg xmlns="http://www.w3.org/2000/svg" xmlns:xlink="http://www.w3.org/1999/xlink" fill-opacity="1" color-rendering="auto" color-interpolation="auto" text-rendering="auto" stroke="black" stroke-linecap="square" width="416" stroke-miterlimit="10" shape-rendering="auto" stroke-opacity="1" fill="black" stroke-dasharray="none" font-weight="normal" stroke-width="1" height="204" font-family="'Dialog'" font-style="normal" stroke-linejoin="miter" font-size="12px" stroke-dashoffset="0" image-rendering="auto">
  <!--Generated by ySVG 2.5-->
  <defs id="genericDefs"/>
  <g>
    <defs id="defs1">
      <clipPath clipPathUnits="userSpaceOnUse" id="clipPath1">
        <path d="M0 0 L416 0 L416 204 L0 204 L0 0 Z"/>
      </clipPath>
      <clipPath clipPathUnits="userSpaceOnUse" id="clipPath2">
        <path d="M373 218 L789 218 L789 422 L373 422 L373 218 Z"/>
      </clipPath>
    </defs>
    <g fill="white" text-rendering="geometricPrecision" shape-rendering="geometricPrecision" transform="translate(-373,-218)" stroke="white">
      <rect x="373" width="416" height="204" y="218" clip-path="url(#clipPath2)" stroke="none"/>
    </g>
    <g fill="rgb(247,247,247)" text-rendering="geometricPrecision" shape-rendering="geometricPrecision" transform="matrix(1,0,0,1,-373,-218)" stroke="rgb(247,247,247)">
      <rect x="383.9427" width="19.12" height="20.4" y="378.6978" clip-path="url(#clipPath2)" stroke="none"/>
    </g>
    <g text-rendering="geometricPrecision" stroke-miterlimit="1.45" shape-rendering="geometricPrecision" font-family="sans-serif" transform="matrix(1,0,0,1,-373,-218)" stroke-linecap="butt">
      <text x="390.3767" xml:space="preserve" y="393.0521" clip-path="url(#clipPath2)" stroke="none">s</text>
      <rect fill="none" x="383.9427" width="19.12" height="20.4" y="378.6978" clip-path="url(#clipPath2)"/>
    </g>
    <g fill="rgb(247,247,247)" text-rendering="geometricPrecision" shape-rendering="geometricPrecision" transform="matrix(1,0,0,1,-373,-218)" stroke="rgb(247,247,247)">
      <path d="M480.2434 378.6978 L499.3634 378.6978 L494.5834 399.0978 L485.0234 399.0978 Z" fill-rule="evenodd" clip-path="url(#clipPath2)" stroke="none"/>
    </g>
    <g text-rendering="geometricPrecision" stroke-miterlimit="1.45" shape-rendering="geometricPrecision" transform="matrix(1,0,0,1,-373,-218)" stroke-linecap="butt">
      <path fill="none" d="M480.2434 378.6978 L499.3634 378.6978 L494.5834 399.0978 L485.0234 399.0978 Z" fill-rule="evenodd" clip-path="url(#clipPath2)"/>
      <text x="484.9841" xml:space="preserve" y="393.0521" clip-path="url(#clipPath2)" font-family="sans-serif" stroke="none">tr</text>
    </g>
    <g fill="rgb(247,247,247)" text-rendering="geometricPrecision" shape-rendering="geometricPrecision" transform="matrix(1,0,0,1,-373,-218)" stroke="rgb(247,247,247)">
      <path d="M556.9573 384.6728 L562.5575 378.6978 L570.4772 378.6978 L576.0773 384.6728 L576.0773 393.1227 L570.4772 399.0978 L562.5575 399.0978 L556.9573 393.1227 Z" fill-rule="evenodd" clip-path="url(#clipPath2)" stroke="none"/>
    </g>
    <g text-rendering="geometricPrecision" stroke-miterlimit="1.45" shape-rendering="geometricPrecision" font-family="sans-serif" transform="matrix(1,0,0,1,-373,-218)" stroke-linecap="butt">
      <text x="560.3621" xml:space="preserve" y="392.3065" clip-path="url(#clipPath2)" stroke="none">tu</text>
      <path fill="none" d="M556.9573 384.6728 L562.5575 378.6978 L570.4772 378.6978 L576.0773 384.6728 L576.0773 393.1227 L570.4772 399.0978 L562.5575 399.0978 L556.9573 393.1227 Z" clip-path="url(#clipPath2)" fill-rule="evenodd"/>
    </g>
    <g fill="white" text-rendering="geometricPrecision" shape-rendering="geometricPrecision" transform="matrix(1,0,0,1,-373,-218)" stroke="white">
      <rect x="644.6723" y="376.85" clip-path="url(#clipPath2)" width="41.9932" rx="4" ry="4" height="24.3765" stroke="none"/>
      <rect x="644.6723" y="376.85" clip-path="url(#clipPath2)" fill="rgb(241,163,64)" width="41.9932" height="21.4609" stroke="none"/>
    </g>
    <g font-size="15px" stroke-linecap="butt" transform="matrix(1,0,0,1,-373,-218)" text-rendering="geometricPrecision" font-family="sans-serif" shape-rendering="geometricPrecision" stroke-miterlimit="1.45">
      <text x="650.2331" xml:space="preserve" y="392.7734" clip-path="url(#clipPath2)" stroke="none">BBB</text>
      <rect x="644.6723" y="376.85" clip-path="url(#clipPath2)" fill="none" width="41.9932" stroke-dasharray="6,2" rx="4" ry="4" height="24.3765"/>
      <text x="689.5894" xml:space="preserve" font-size="12px" y="393.1926" clip-path="url(#clipPath2)" stroke="none">computing unit</text>
      <text x="379.2083" xml:space="preserve" font-size="12px" y="372.0521" clip-path="url(#clipPath2)" stroke="none">Legend:</text>
      <line y2="374.8821" fill="none" x1="379.2083" clip-path="url(#clipPath2)" x2="427.5423" y1="374.8821"/>
    </g>
    <g fill="white" text-rendering="geometricPrecision" shape-rendering="geometricPrecision" transform="matrix(1,0,0,1,-373,-218)" stroke="white">
      <rect x="678.2614" y="218.6258" clip-path="url(#clipPath2)" width="109.9596" rx="4" ry="4" height="138.472" stroke="none"/>
      <rect x="678.2614" y="218.6258" clip-path="url(#clipPath2)" fill="rgb(241,163,64)" width="109.9596" height="21.4609" stroke="none"/>
    </g>
    <g font-size="15px" stroke-linecap="butt" transform="matrix(1,0,0,1,-373,-218)" text-rendering="geometricPrecision" font-family="sans-serif" shape-rendering="geometricPrecision" stroke-miterlimit="1.45">
      <text x="713.0337" xml:space="preserve" y="234.5491" clip-path="url(#clipPath2)" stroke="none">BBB2</text>
      <rect x="678.2614" y="218.6258" clip-path="url(#clipPath2)" fill="none" width="109.9596" stroke-dasharray="6,2" rx="4" ry="4" height="138.472"/>
    </g>
    <g fill="rgb(247,247,247)" text-rendering="geometricPrecision" shape-rendering="geometricPrecision" transform="matrix(1,0,0,1,-373,-218)" stroke="rgb(247,247,247)">
      <rect x="690.7171" width="30" height="30" y="242.9539" clip-path="url(#clipPath2)" stroke="none"/>
    </g>
    <g text-rendering="geometricPrecision" stroke-miterlimit="1.45" shape-rendering="geometricPrecision" font-family="sans-serif" transform="matrix(1,0,0,1,-373,-218)" stroke-linecap="butt">
      <text x="698.7737" xml:space="preserve" y="262.1082" clip-path="url(#clipPath2)" stroke="none">s3</text>
      <rect fill="none" x="690.7171" width="30" height="30" y="242.9539" clip-path="url(#clipPath2)"/>
    </g>
    <g fill="rgb(247,247,247)" text-rendering="geometricPrecision" shape-rendering="geometricPrecision" transform="matrix(1,0,0,1,-373,-218)" stroke="rgb(247,247,247)">
      <rect x="741.28" width="30" height="30" y="305.0019" clip-path="url(#clipPath2)" stroke="none"/>
    </g>
    <g text-rendering="geometricPrecision" stroke-miterlimit="1.45" shape-rendering="geometricPrecision" font-family="sans-serif" transform="matrix(1,0,0,1,-373,-218)" stroke-linecap="butt">
      <text x="749.3367" xml:space="preserve" y="324.1562" clip-path="url(#clipPath2)" stroke="none">s4</text>
      <rect fill="none" x="741.28" width="30" height="30" y="305.0019" clip-path="url(#clipPath2)"/>
    </g>
    <g fill="rgb(247,247,247)" text-rendering="geometricPrecision" shape-rendering="geometricPrecision" transform="matrix(1,0,0,1,-373,-218)" stroke="rgb(247,247,247)">
      <rect x="691.184" width="30" height="30" y="324.6402" clip-path="url(#clipPath2)" stroke="none"/>
    </g>
    <g text-rendering="geometricPrecision" stroke-miterlimit="1.45" shape-rendering="geometricPrecision" font-family="sans-serif" transform="matrix(1,0,0,1,-373,-218)" stroke-linecap="butt">
      <text x="699.2407" xml:space="preserve" y="343.7945" clip-path="url(#clipPath2)" stroke="none">s5</text>
      <rect fill="none" x="691.184" width="30" height="30" y="324.6402" clip-path="url(#clipPath2)"/>
    </g>
    <g fill="rgb(247,247,247)" text-rendering="geometricPrecision" shape-rendering="geometricPrecision" transform="matrix(1,0,0,1,-373,-218)" stroke="rgb(247,247,247)">
      <path d="M741.28 245.0019 L771.28 245.0019 L763.78 275.0019 L748.78 275.0019 Z" fill-rule="evenodd" clip-path="url(#clipPath2)" stroke="none"/>
    </g>
    <g text-rendering="geometricPrecision" stroke-miterlimit="1.45" shape-rendering="geometricPrecision" transform="matrix(1,0,0,1,-373,-218)" stroke-linecap="butt">
      <path fill="none" d="M741.28 245.0019 L771.28 245.0019 L763.78 275.0019 L748.78 275.0019 Z" fill-rule="evenodd" clip-path="url(#clipPath2)"/>
      <text x="747.6433" xml:space="preserve" y="264.1562" clip-path="url(#clipPath2)" font-family="sans-serif" stroke="none">tr1</text>
      <path fill="none" d="M720.7029 269.0845 L722.2889 270.2625 L736.2401 284.7066 L745.3391 298.0212 L745.3812 298.1119" clip-path="url(#clipPath2)"/>
      <path d="M749.3378 305.065 L747.7487 292.1625 L744.8867 297.2428 L739.0573 297.1082 Z" clip-path="url(#clipPath2)" stroke="none"/>
      <path fill="none" d="M741.2495 309.5127 L739.2165 308.094 L725.1015 293.7834 L715.8917 279.9986 L715.8522 279.9067" clip-path="url(#clipPath2)"/>
      <path d="M712.1068 272.8376 L713.3066 285.7822 L716.3203 280.7904 L722.143 281.1004 Z" clip-path="url(#clipPath2)" stroke="none"/>
      <path fill="none" d="M743.6259 335.0175 L741.2351 336.9095 L735.2225 340.0005 L729.1775 341.6888 L729.0777 341.6954" clip-path="url(#clipPath2)"/>
      <path d="M721.1025 342.3248 L733.4587 346.3652 L730.0746 341.6167 L732.6719 336.3962 Z" clip-path="url(#clipPath2)" stroke="none"/>
      <path fill="none" d="M721.2063 326.778 L728.4351 322.6862 L733.4855 321.4923" clip-path="url(#clipPath2)"/>
      <path d="M741.2709 319.6519 L728.4426 317.5466 L732.5123 321.7224 L730.743 327.2784 Z" clip-path="url(#clipPath2)" stroke="none"/>
      <path fill="none" stroke-dasharray="0,4" d="M756.28 275.0312 L756.28 297.0019" stroke-dashoffset="2" clip-path="url(#clipPath2)" stroke-linecap="round"/>
      <path stroke-dasharray="0,4" d="M756.28 305.0019 L761.28 293.0019 L756.28 296.0019 L751.28 293.0019 Z" stroke-dashoffset="2" clip-path="url(#clipPath2)" stroke-linecap="round" stroke="none"/>
    </g>
    <g fill="white" text-rendering="geometricPrecision" shape-rendering="geometricPrecision" transform="matrix(1,0,0,1,-373,-218)" stroke="white">
      <rect x="490.9594" y="268.7203" clip-path="url(#clipPath2)" width="179.1949" rx="4" ry="4" height="88.3774" stroke="none"/>
      <rect x="490.9594" y="268.7203" clip-path="url(#clipPath2)" fill="rgb(241,163,64)" width="179.1949" height="21.4609" stroke="none"/>
    </g>
    <g font-size="15px" stroke-linecap="butt" transform="matrix(1,0,0,1,-373,-218)" text-rendering="geometricPrecision" font-family="sans-serif" shape-rendering="geometricPrecision" stroke-miterlimit="1.45">
      <text x="560.3493" xml:space="preserve" y="284.6437" clip-path="url(#clipPath2)" stroke="none">BBB1</text>
      <rect x="490.9594" y="268.7203" clip-path="url(#clipPath2)" fill="none" width="179.1949" stroke-dasharray="6,2" rx="4" ry="4" height="88.3774"/>
    </g>
    <g fill="rgb(247,247,247)" text-rendering="geometricPrecision" shape-rendering="geometricPrecision" transform="matrix(1,0,0,1,-373,-218)" stroke="rgb(247,247,247)">
      <rect x="493.6806" width="30" height="30" y="324.6402" clip-path="url(#clipPath2)" stroke="none"/>
    </g>
    <g text-rendering="geometricPrecision" stroke-miterlimit="1.45" shape-rendering="geometricPrecision" font-family="sans-serif" transform="matrix(1,0,0,1,-373,-218)" stroke-linecap="butt">
      <text x="501.7372" xml:space="preserve" y="343.7945" clip-path="url(#clipPath2)" stroke="none">s1</text>
      <rect fill="none" x="493.6806" width="30" height="30" y="324.6402" clip-path="url(#clipPath2)"/>
    </g>
    <g fill="rgb(247,247,247)" text-rendering="geometricPrecision" shape-rendering="geometricPrecision" transform="matrix(1,0,0,1,-373,-218)" stroke="rgb(247,247,247)">
      <rect x="631.184" width="30" height="30" y="324.6402" clip-path="url(#clipPath2)" stroke="none"/>
    </g>
    <g text-rendering="geometricPrecision" stroke-miterlimit="1.45" shape-rendering="geometricPrecision" font-family="sans-serif" transform="matrix(1,0,0,1,-373,-218)" stroke-linecap="butt">
      <text x="639.2407" xml:space="preserve" y="343.7945" clip-path="url(#clipPath2)" stroke="none">s2</text>
      <rect fill="none" x="631.184" width="30" height="30" y="324.6402" clip-path="url(#clipPath2)"/>
    </g>
    <g fill="rgb(247,247,247)" text-rendering="geometricPrecision" shape-rendering="geometricPrecision" transform="matrix(1,0,0,1,-373,-218)" stroke="rgb(247,247,247)">
      <path d="M563.7673 333.427 L572.5541 324.6402 L584.9805 324.6402 L593.7673 333.427 L593.7673 345.8534 L584.9805 354.6402 L572.5541 354.6402 L563.7673 345.8534 Z" fill-rule="evenodd" clip-path="url(#clipPath2)" stroke="none"/>
    </g>
    <g text-rendering="geometricPrecision" stroke-miterlimit="1.45" shape-rendering="geometricPrecision" font-family="sans-serif" transform="matrix(1,0,0,1,-373,-218)" stroke-linecap="butt">
      <text x="568.7946" xml:space="preserve" y="343.7945" clip-path="url(#clipPath2)" stroke="none">tu1</text>
      <path fill="none" d="M563.7673 333.427 L572.5541 324.6402 L584.9805 324.6402 L593.7673 333.427 L593.7673 345.8534 L584.9805 354.6402 L572.5541 354.6402 L563.7673 345.8534 Z" clip-path="url(#clipPath2)" fill-rule="evenodd"/>
    </g>
    <g fill="rgb(247,247,247)" text-rendering="geometricPrecision" shape-rendering="geometricPrecision" transform="matrix(1,0,0,1,-373,-218)" stroke="rgb(247,247,247)">
      <path d="M597.0661 294.6402 L627.0661 294.6402 L619.5661 324.6402 L604.5661 324.6402 Z" fill-rule="evenodd" clip-path="url(#clipPath2)" stroke="none"/>
    </g>
    <g text-rendering="geometricPrecision" stroke-miterlimit="1.45" shape-rendering="geometricPrecision" transform="matrix(1,0,0,1,-373,-218)" stroke-linecap="butt">
      <path fill="none" d="M597.0661 294.6402 L627.0661 294.6402 L619.5661 324.6402 L604.5661 324.6402 Z" fill-rule="evenodd" clip-path="url(#clipPath2)"/>
      <text x="603.4294" xml:space="preserve" y="313.7945" clip-path="url(#clipPath2)" font-family="sans-serif" stroke="none">tr2</text>
      <text x="689.735" xml:space="preserve" y="416.4038" clip-path="url(#clipPath2)" font-family="sans-serif" stroke="none">connected to</text>
      <text x="405.0627" xml:space="preserve" y="393.0521" clip-path="url(#clipPath2)" font-family="sans-serif" stroke="none">segment</text>
      <text x="579.4076" xml:space="preserve" y="393.1926" clip-path="url(#clipPath2)" font-family="sans-serif" stroke="none">turnout</text>
      <text x="502.3274" xml:space="preserve" y="393.0521" clip-path="url(#clipPath2)" font-family="sans-serif" stroke="none">train</text>
      <text x="519.5903" xml:space="preserve" y="416.4038" clip-path="url(#clipPath2)" font-family="sans-serif" stroke="none">straight/divergent</text>
      <text x="436.2074" xml:space="preserve" y="416.4038" clip-path="url(#clipPath2)" font-family="sans-serif" stroke="none">on</text>
      <path fill="none" d="M691.1547 344.1731 L676.184 345.6802 L669.1139 344.9684 L669.0182 344.9395" clip-path="url(#clipPath2)"/>
      <path d="M661.0571 344.1516 L672.5063 350.3091 L670.0133 345.038 L673.4911 340.3577 Z" clip-path="url(#clipPath2)" stroke="none"/>
      <path fill="none" d="M661.1547 336.0771 L661.184 336.0702 L676.184 334.8802 L683.1798 335.4352" clip-path="url(#clipPath2)"/>
      <path d="M691.1547 336.0678 L679.5878 330.1345 L682.1829 335.356 L678.7969 340.1031 Z" clip-path="url(#clipPath2)" stroke="none"/>
      <path fill="none" d="M631.2062 344.9017 L629.3298 345.5608 L612.4756 347.5344 L601.6282 346.2642 L601.5339 346.231" clip-path="url(#clipPath2)"/>
      <path d="M593.6479 344.8851 L604.6356 351.8327 L602.5196 346.3993 L606.3181 341.9753 Z" clip-path="url(#clipPath2)" stroke="none"/>
      <path fill="none" stroke-dasharray="6,2" d="M563.7438 339.6402 L531.6562 339.6402" clip-path="url(#clipPath2)"/>
      <path stroke-dasharray="6,2" d="M523.6562 339.6402 L535.6562 344.6402 L532.6562 339.6402 L535.6562 334.6402 Z" clip-path="url(#clipPath2)" stroke="none"/>
      <path fill="none" d="M593.7451 335.2318 L595.6215 334.6795 L612.4756 333.026 L623.2885 334.0868 L623.3845 334.115" clip-path="url(#clipPath2)"/>
      <path d="M631.3041 335.2457 L620.1313 328.5999 L622.3945 333.9737 L618.7179 338.4995 Z" clip-path="url(#clipPath2)" stroke="none"/>
      <path fill="none" stroke-dasharray="0,4" d="M623.3246 309.6402 L629.1781 309.6402 L633.9168 310.5779 L636.4259 313.3909 L637.8203 317.1415" stroke-dashoffset="2" clip-path="url(#clipPath2)" stroke-linecap="round"/>
      <path stroke-dasharray="0,4" d="M640.6078 324.6402 L641.1131 311.65 L637.4718 316.2042 L631.7398 315.1345 Z" stroke-dashoffset="2" clip-path="url(#clipPath2)" stroke-linecap="round" stroke="none"/>
      <path fill="none" d="M649.4099 412.7495 L674.735 412.7495" clip-path="url(#clipPath2)"/>
      <path d="M682.735 412.7495 L670.735 407.7495 L673.735 412.7495 L670.735 417.7495 Z" clip-path="url(#clipPath2)" stroke="none"/>
      <path fill="none" stroke-dasharray="6,2" d="M479.2653 412.7495 L504.5903 412.7495" clip-path="url(#clipPath2)"/>
      <path stroke-dasharray="6,2" d="M512.5903 412.7495 L500.5903 407.7495 L503.5903 412.7495 L500.5903 417.7495 Z" clip-path="url(#clipPath2)" stroke="none"/>
      <path fill="none" stroke-dasharray="0,4" d="M395.8823 412.7495 L421.2074 412.7495" stroke-dashoffset="2" clip-path="url(#clipPath2)" stroke-linecap="round"/>
      <path stroke-dasharray="0,4" d="M429.2074 412.7495 L417.2074 407.7495 L420.2074 412.7495 L417.2074 417.7495 Z" stroke-dashoffset="2" clip-path="url(#clipPath2)" stroke-linecap="round" stroke="none"/>
    </g>
    <g fill="white" text-rendering="geometricPrecision" shape-rendering="geometricPrecision" transform="matrix(1,0,0,1,-373,-218)" stroke="white">
      <rect x="373.1828" y="218.6258" clip-path="url(#clipPath2)" width="109.6694" rx="4" ry="4" height="138.472" stroke="none"/>
      <rect x="373.1828" y="218.6258" clip-path="url(#clipPath2)" fill="rgb(241,163,64)" width="109.6694" height="21.4609" stroke="none"/>
    </g>
    <g font-size="15px" stroke-linecap="butt" transform="matrix(1,0,0,1,-373,-218)" text-rendering="geometricPrecision" font-family="sans-serif" shape-rendering="geometricPrecision" stroke-miterlimit="1.45">
      <text x="407.81" xml:space="preserve" y="234.5491" clip-path="url(#clipPath2)" stroke="none">BBB3</text>
      <rect x="373.1828" y="218.6258" clip-path="url(#clipPath2)" fill="none" width="109.6694" stroke-dasharray="6,2" rx="4" ry="4" height="138.472"/>
    </g>
    <g fill="rgb(247,247,247)" text-rendering="geometricPrecision" shape-rendering="geometricPrecision" transform="matrix(1,0,0,1,-373,-218)" stroke="rgb(247,247,247)">
      <rect x="440.3965" width="30" height="30" y="242.9539" clip-path="url(#clipPath2)" stroke="none"/>
    </g>
    <g text-rendering="geometricPrecision" stroke-miterlimit="1.45" shape-rendering="geometricPrecision" font-family="sans-serif" transform="matrix(1,0,0,1,-373,-218)" stroke-linecap="butt">
      <text x="448.4531" xml:space="preserve" y="262.1082" clip-path="url(#clipPath2)" stroke="none">s6</text>
      <rect fill="none" x="440.3965" width="30" height="30" y="242.9539" clip-path="url(#clipPath2)"/>
    </g>
    <g fill="rgb(247,247,247)" text-rendering="geometricPrecision" shape-rendering="geometricPrecision" transform="matrix(1,0,0,1,-373,-218)" stroke="rgb(247,247,247)">
      <path d="M380.3965 251.7407 L389.1833 242.9539 L401.6097 242.9539 L410.3965 251.7407 L410.3965 264.1671 L401.6097 272.9539 L389.1833 272.9539 L380.3965 264.1671 Z" fill-rule="evenodd" clip-path="url(#clipPath2)" stroke="none"/>
    </g>
    <g text-rendering="geometricPrecision" stroke-miterlimit="1.45" shape-rendering="geometricPrecision" font-family="sans-serif" transform="matrix(1,0,0,1,-373,-218)" stroke-linecap="butt">
      <text x="385.4238" xml:space="preserve" y="262.1082" clip-path="url(#clipPath2)" stroke="none">tu2</text>
      <path fill="none" d="M380.3965 251.7407 L389.1833 242.9539 L401.6097 242.9539 L410.3965 251.7407 L410.3965 264.1671 L401.6097 272.9539 L389.1833 272.9539 L380.3965 264.1671 Z" clip-path="url(#clipPath2)" fill-rule="evenodd"/>
    </g>
    <g fill="rgb(247,247,247)" text-rendering="geometricPrecision" shape-rendering="geometricPrecision" transform="matrix(1,0,0,1,-373,-218)" stroke="rgb(247,247,247)">
      <rect x="440.3965" width="30" height="30" y="287.2757" clip-path="url(#clipPath2)" stroke="none"/>
    </g>
    <g text-rendering="geometricPrecision" stroke-miterlimit="1.45" shape-rendering="geometricPrecision" font-family="sans-serif" transform="matrix(1,0,0,1,-373,-218)" stroke-linecap="butt">
      <text x="448.4531" xml:space="preserve" y="306.4301" clip-path="url(#clipPath2)" stroke="none">s8</text>
      <rect fill="none" x="440.3965" width="30" height="30" y="287.2757" clip-path="url(#clipPath2)"/>
    </g>
    <g fill="rgb(247,247,247)" text-rendering="geometricPrecision" shape-rendering="geometricPrecision" transform="matrix(1,0,0,1,-373,-218)" stroke="rgb(247,247,247)">
      <rect x="380.3965" width="30" height="30" y="313.1141" clip-path="url(#clipPath2)" stroke="none"/>
    </g>
    <g text-rendering="geometricPrecision" stroke-miterlimit="1.45" shape-rendering="geometricPrecision" font-family="sans-serif" transform="matrix(1,0,0,1,-373,-218)" stroke-linecap="butt">
      <text x="388.4531" xml:space="preserve" y="332.2684" clip-path="url(#clipPath2)" stroke="none">s7</text>
      <rect fill="none" x="380.3965" width="30" height="30" y="313.1141" clip-path="url(#clipPath2)"/>
      <path fill="none" d="M690.7007 250.7608 L478.4159 250.7608" clip-path="url(#clipPath2)"/>
      <path d="M470.4159 250.7608 L482.4159 255.7608 L479.4159 250.7608 L482.4159 245.7608 Z" clip-path="url(#clipPath2)" stroke="none"/>
      <path fill="none" d="M470.3794 262.5368 L682.6909 262.5368" clip-path="url(#clipPath2)"/>
      <path d="M690.6909 262.5368 L678.6909 257.5368 L681.6909 262.5368 L678.6909 267.5368 Z" clip-path="url(#clipPath2)" stroke="none"/>
      <path fill="none" d="M440.3672 266.1399 L432.8965 268.1764 L425.3965 268.8579 L417.8965 268.1764 L416.6709 267.8423 L416.5798 267.801" clip-path="url(#clipPath2)"/>
      <path d="M408.9247 265.4775 L418.9553 273.7472 L417.5367 268.0914 L421.8596 264.1782 Z" clip-path="url(#clipPath2)" stroke="none"/>
      <path fill="none" d="M410.3672 252.4746 L410.3965 252.4639 L425.3965 250.6339 L432.4261 251.4915" clip-path="url(#clipPath2)"/>
      <path d="M440.3672 252.4603 L429.061 246.0439 L431.4334 251.3704 L427.85 255.9703 Z" clip-path="url(#clipPath2)" stroke="none"/>
      <path fill="none" stroke-dasharray="6,2" d="M404.8324 269.7621 L407.4444 273.0308 L421.4603 285.4434 L433.3255 292.6797 L433.4185 292.7164" clip-path="url(#clipPath2)"/>
      <path stroke-dasharray="6,2" d="M440.5129 296.4137 L432.1822 286.4338 L432.5317 292.2542 L427.5605 295.3017 Z" clip-path="url(#clipPath2)" stroke="none"/>
      <path fill="none" stroke-dasharray="6,2" d="M569.7057 327.542 L566.7789 323.6343 L553.8098 310.8671 L539.8597 301.3386 L524.9288 295.0487 L509.017 291.9975 L492.1244 292.1849 L478.1023 294.8727 L478.0081 294.9061" clip-path="url(#clipPath2)"/>
      <path stroke-dasharray="6,2" d="M470.288 297.004 L483.1793 298.6822 L478.9731 294.6438 L480.5569 289.0321 Z" clip-path="url(#clipPath2)" stroke="none"/>
      <path fill="none" d="M566.0468 331.1548 L564.761 330.2971 L550.3505 322.289 L535.5357 315.6159 L520.3165 310.2779 L504.693 306.2748 L488.6652 303.6068 L478.4087 302.7747 L478.3087 302.7747" clip-path="url(#clipPath2)"/>
      <path d="M470.3248 302.2677 L481.9837 308.0182 L479.3067 302.8381 L482.6176 298.0384 Z" clip-path="url(#clipPath2)" stroke="none"/>
      <path fill="none" d="M470.3965 306.8187 L556.1092 332.7779" clip-path="url(#clipPath2)"/>
      <path d="M563.7657 335.0968 L553.7302 326.8331 L555.1521 332.488 L550.8316 336.4038 Z" clip-path="url(#clipPath2)" stroke="none"/>
      <path fill="none" stroke-dasharray="6,2" d="M387.5351 271.3488 L385.6071 275.494 L383.1598 284.264 L382.344 293.034 L383.1598 301.804 L384.2119 305.5743 L384.2541 305.665" clip-path="url(#clipPath2)"/>
      <path stroke-dasharray="6,2" d="M386.8342 313.2375 L387.6969 300.2662 L383.9316 304.7184 L378.2312 303.4913 Z" clip-path="url(#clipPath2)" stroke="none"/>
      <path fill="none" d="M395.3965 272.9246 L395.3965 305.1041" clip-path="url(#clipPath2)"/>
      <path d="M395.3965 313.1041 L400.3965 301.1041 L395.3965 304.1041 L390.3965 301.1041 Z" clip-path="url(#clipPath2)" stroke="none"/>
      <path fill="none" d="M493.6646 340.3138 L479.0538 340.9693 L466.7777 341.053 L454.1893 340.2164 L441.2888 338.4596 L428.076 335.7826 L418.2162 333.4689" clip-path="url(#clipPath2)"/>
      <path d="M410.4278 331.6413 L420.9682 339.2505 L419.1898 333.6974 L423.2527 329.5149 Z" clip-path="url(#clipPath2)" stroke="none"/>
      <path fill="none" d="M410.3952 327.6333 L424.1043 327.1939 L452.5543 328.8081 L480.7463 332.9569 L485.9237 334.1956" clip-path="url(#clipPath2)"/>
      <path d="M493.7041 336.0571 L483.1969 328.4021 L484.9511 333.9629 L480.8701 338.1276 Z" clip-path="url(#clipPath2)" stroke="none"/>
      <path fill="none" d="M401.7149 313.1434 L402.5934 310.5741 L404.3927 301.804 L404.9924 293.034 L404.3927 284.264 L403.6439 280.6142 L403.6116 280.5196" clip-path="url(#clipPath2)"/>
      <path d="M401.6673 272.7594 L399.7336 285.6148 L403.8546 281.4896 L409.4338 283.1844 Z" clip-path="url(#clipPath2)" stroke="none"/>
    </g>
  </g>
</svg>
